<svg viewBox="-2.5 -0.1 55.0 36.8" fill="none" xmlns="http://www.w3.org/2000/svg">
				<path
						d="M13.338 31.6165C12.6056 31.6165 11.9465 31.4657 11.3607 31.1642C10.7747 30.8628 10.344 30.4621 10.0684 29.9624L11.2573 29.0189C11.7656 29.803 12.4764 30.195 13.3897 30.195C13.8291 30.195 14.1865 30.0896 14.4624 29.8784C14.738 29.6673 14.8759 29.3938 14.8759 29.0578C14.8759 28.4461 14.4407 27.9809 13.5706 27.662L12.5626 27.3001C11.8215 27.0332 11.2745 26.6907 10.9213 26.2727C10.5679 25.8549 10.3914 25.3358 10.3914 24.7154C10.3914 23.9315 10.6713 23.3047 11.2315 22.8351C11.7914 22.3655 12.5065 22.1308 13.3768 22.1308C14.5399 22.1308 15.466 22.5486 16.1553 23.3843L15.1085 24.4053C14.6346 23.8366 14.053 23.5523 13.3639 23.5523C12.9588 23.5523 12.6163 23.6472 12.3364 23.8366C12.0564 24.0262 11.9164 24.2848 11.9164 24.612C11.9164 24.9309 12.0218 25.1828 12.2331 25.3681C12.4441 25.5534 12.8037 25.7408 13.3122 25.9302L14.2427 26.2791C14.949 26.5463 15.4875 26.8952 15.8581 27.3259C16.2285 27.7569 16.4094 28.3039 16.4009 28.9672C16.4009 29.76 16.1166 30.3997 15.5479 30.8864C14.9793 31.3732 14.2427 31.6165 13.338 31.6165Z"
						fill="#0395FF"/>
				<path
						d="M19.2565 31.4616H17.835V21.769H19.2565V25.8787C19.6614 25.2066 20.3163 24.8706 21.2209 24.8706C21.9705 24.8706 22.5692 25.1162 23.0173 25.6073C23.4651 26.0984 23.6893 26.7532 23.6893 27.5716V31.4616H22.2677V27.8043C22.2677 27.2873 22.1469 26.8847 21.9059 26.5959C21.6646 26.3073 21.3372 26.163 20.9237 26.163C20.4326 26.163 20.032 26.3484 19.7218 26.7187C19.4116 27.0893 19.2565 27.6104 19.2565 28.2824V31.4616Z"
						fill="#0395FF"/>
				<path
						d="M28.4328 30.2727C28.9928 30.2727 29.4558 30.0769 29.8222 29.6848C30.1882 29.2928 30.3714 28.8082 30.3714 28.2308C30.3714 27.6537 30.1882 27.1691 29.8222 26.777C29.4558 26.385 28.9928 26.189 28.4328 26.189C27.8642 26.189 27.3968 26.385 27.0307 26.777C26.6643 27.1691 26.4814 27.6537 26.4814 28.2308C26.4814 28.8082 26.6643 29.2928 27.0307 29.6848C27.3968 30.0769 27.8642 30.2727 28.4328 30.2727ZM30.8431 30.6152C30.1925 31.2659 29.3892 31.5909 28.4328 31.5909C27.4765 31.5909 26.673 31.2659 26.0226 30.6152C25.3721 29.9649 25.0469 29.17 25.0469 28.2308C25.0469 27.2919 25.3721 26.4971 26.0226 25.8465C26.673 25.1961 27.4765 24.8708 28.4328 24.8708C29.3892 24.8708 30.1925 25.1961 30.8431 25.8465C31.4934 26.4971 31.8188 27.2919 31.8188 28.2308C31.8188 29.17 31.4934 29.9649 30.8431 30.6152Z"
						fill="#0395FF"/>
				<path
						d="M36.4966 30.2986C37.0566 30.2986 37.5176 30.1005 37.8795 29.7041C38.2414 29.308 38.4222 28.8169 38.4222 28.2308C38.4222 27.645 38.2414 27.1539 37.8795 26.7576C37.5176 26.3614 37.0566 26.1631 36.4966 26.1631C35.928 26.1631 35.4628 26.3614 35.1009 26.7576C34.7391 27.1539 34.5581 27.645 34.5581 28.2308C34.5581 28.8169 34.7391 29.308 35.1009 29.7041C35.4628 30.1005 35.928 30.2986 36.4966 30.2986ZM34.6744 34.1627H33.2529V24.9999H34.6744V25.8658C34.8725 25.5902 35.1591 25.3554 35.5339 25.1615C35.9087 24.9677 36.3157 24.8708 36.7551 24.8708C37.634 24.8708 38.3726 25.1983 38.9715 25.853C39.5702 26.5078 39.8697 27.3003 39.8697 28.2308C39.8697 29.1613 39.5702 29.9541 38.9715 30.6087C38.3726 31.2637 37.634 31.5909 36.7551 31.5909C36.3157 31.5909 35.9087 31.494 35.5339 31.3002C35.1591 31.1063 34.8725 30.8717 34.6744 30.5959V34.1627Z"
						fill="#0395FF"/>
				<path
						d="M50.0078 4.35023C50.0078 5.44011 49.1244 6.32339 48.0346 6.32339C46.9449 6.32339 46.0615 5.44011 46.0615 4.35023C46.0615 3.26043 46.9449 2.37706 48.0346 2.37706C49.1244 2.37706 50.0078 3.26043 50.0078 4.35023Z"
						fill="#0395FF"/>
				<path d="M38.3425 2.70102L44.1514 14.2942L41.7949 18.9267L33.6436 2.70108L38.3425 2.70102Z"
					  fill="black"/>
				<path
						d="M28.908 12.5367C28.2699 13.8399 26.9312 14.7375 25.3824 14.7375C23.2154 14.7375 21.4587 12.9808 21.4587 10.8138C21.4587 8.64683 23.2154 6.89011 25.3824 6.89011C26.9481 6.89011 28.2991 7.80733 28.9287 9.13362L32.6724 7.25083C31.3532 4.55649 28.5846 2.70096 25.3824 2.70096C20.9018 2.70096 17.2695 6.33317 17.2695 10.8138C17.2695 15.2944 20.9018 18.9267 25.3824 18.9267C28.5622 18.9267 31.3143 17.0969 32.6445 14.4331L28.908 12.5367Z"
						fill="black"/>
				<path
						d="M11.6463 12.5367C11.0082 13.8399 9.66951 14.7375 8.12071 14.7375C5.95369 14.7375 4.19697 12.9808 4.19697 10.8138C4.19697 8.64683 5.95369 6.89011 8.12071 6.89011C9.68639 6.89011 11.0374 7.80733 11.6669 9.13362L15.4107 7.25083C14.0915 4.55649 11.3229 2.70096 8.12071 2.70096C3.64011 2.70096 0.0078125 6.33317 0.0078125 10.8138C0.0078125 15.2944 3.64011 18.9267 8.12071 18.9267C11.3005 18.9267 14.0526 17.0969 15.3828 14.4331L11.6463 12.5367Z"
						fill="black"/>
			</svg>