<svg xmlns="http://www.w3.org/2000/svg" xmlns:xlink="http://www.w3.org/1999/xlink" viewBox="-15.17 -16.87 487.74 153.54">
  <defs>
    <clipPath id="clip-Cubilis_logo_blue_3">
      <rect width="458" height="124"/>
    </clipPath>
  </defs>
  <g id="Cubilis_logo_blue_3" data-name="Cubilis logo – blue – 3" clip-path="url(#clip-Cubilis_logo_blue_3)">
    <g id="Group_11299" data-name="Group 11299" transform="translate(-72.31 -470.188)">
      <g id="Group_10972" data-name="Group 10972" transform="translate(79.318 502.099)">
        <path id="Union_2" data-name="Union 2" d="M123.921,635.376c-.026-.025-.052-.051-.077-.077a8.652,8.652,0,0,1,12.27-12.2h0a.425.425,0,0,0,.041.042,8.626,8.626,0,0,1,2.476,6.059,8.626,8.626,0,0,0-2.476-6.059,22.543,22.543,0,0,0,16.9,7.044,22.954,22.954,0,0,0,9.155-1.872,20.363,20.363,0,0,0,7.057-4.921,8.652,8.652,0,0,1,12.223-.557h0a8.653,8.653,0,0,1,.553,12.224h0a37.509,37.509,0,0,1-12.982,9.143,40.934,40.934,0,0,1-45.141-8.824Z" transform="translate(-111.727 -565.24)" fill="#004f95"/>
        <path id="Path_1441" data-name="Path 1441" d="M183.6,546.177c-.8-.775-1.626-1.522-2.448-2.218a41.277,41.277,0,0,0-55.741,1.964,8.652,8.652,0,0,1,12.062,12.407,23.976,23.976,0,0,1,32.494-1.166c.537.453,1.078.944,1.612,1.459A8.653,8.653,0,1,0,183.6,546.177h0Z" transform="translate(-113.198 -534.078)" fill="#00f5f1"/>
        <path id="Union_1" data-name="Union 1" d="M106.318,580.213A39.207,39.207,0,0,1,118.457,551.3c.024-.023.047-.043.07-.067a8.653,8.653,0,0,1,12.063,12.408h0a21.914,21.914,0,0,0-6.965,16.566,22.819,22.819,0,0,0,7.084,17.035h0a8.652,8.652,0,1,0-12.269,12.2A40.166,40.166,0,0,1,106.318,580.213Zm24.271-16.566a8.649,8.649,0,0,1-12.231-.1l0,0a8.649,8.649,0,0,0,12.23.106l0,0Zm-13.3-1.424a8.632,8.632,0,0,1-1.416-4.766,8.632,8.632,0,0,0,1.416,4.766Z" transform="translate(-106.318 -539.393)" fill="#07c2f8"/>
      </g>
      <g id="Group_10973" data-name="Group 10973" transform="translate(164.692 475.516)">
        <path id="Path_1445" data-name="Path 1445" d="M291.423,607.057v-2.521a43.85,43.85,0,0,1-7.416,7.488,27.3,27.3,0,0,1-8.5,4.5A34.444,34.444,0,0,1,265,618a27.19,27.19,0,0,1-12.78-2.953,21.536,21.536,0,0,1-8.748-8.137q-3.673-6.261-3.673-18V549.959q0-5.9,2.665-8.82a9.092,9.092,0,0,1,7.056-2.916,9.36,9.36,0,0,1,7.2,2.952q2.735,2.952,2.736,8.784v31.466a48.53,48.53,0,0,0,1.152,11.483,13.786,13.786,0,0,0,4.14,7.273,11.831,11.831,0,0,0,8.1,2.627,16.479,16.479,0,0,0,9.361-2.952,17.242,17.242,0,0,0,6.408-7.7q1.655-4.174,1.656-18.289v-23.9q0-5.832,2.736-8.784a9.273,9.273,0,0,1,7.128-2.952,9.1,9.1,0,0,1,7.056,2.916q2.663,2.914,2.664,8.82v56.952q0,5.616-2.557,8.425a9.1,9.1,0,0,1-13.248-.109Q291.421,612.313,291.423,607.057Z" transform="translate(-239.797 -508.989)" fill="#10285c"/>
        <path id="Path_1446" data-name="Path 1446" d="M392.426,503.748v30.026a45.617,45.617,0,0,1,11.3-8.819q5.76-3.06,14.256-3.061a31.552,31.552,0,0,1,17.172,4.645A30.509,30.509,0,0,1,446.608,540q4.066,8.821,4.067,20.917a56.037,56.037,0,0,1-2.268,16.38,38.867,38.867,0,0,1-6.588,12.925,29.756,29.756,0,0,1-10.476,8.461,30.7,30.7,0,0,1-13.572,2.987,32.627,32.627,0,0,1-8.533-1.079,24.97,24.97,0,0,1-6.8-2.845,30.692,30.692,0,0,1-4.788-3.635q-1.982-1.87-5.22-5.616v1.943q0,5.548-2.664,8.389a8.871,8.871,0,0,1-6.768,2.843,8.4,8.4,0,0,1-6.66-2.843q-2.485-2.843-2.484-8.389V504.612q0-5.975,2.411-9.035a8.089,8.089,0,0,1,6.732-3.061,8.611,8.611,0,0,1,6.985,2.918Q392.426,498.348,392.426,503.748Zm.936,58.395q0,11.738,5.364,18.036a17.586,17.586,0,0,0,14.076,6.3q7.416,0,12.781-6.444t5.364-18.468a36.244,36.244,0,0,0-2.232-13.392,19.452,19.452,0,0,0-6.337-8.675,15.579,15.579,0,0,0-9.576-3.06,17.078,17.078,0,0,0-10.008,3.06,20.323,20.323,0,0,0-6.912,8.855A34.4,34.4,0,0,0,393.362,562.143Z" transform="translate(-288.109 -492.516)" fill="#10285c"/>
        <path id="Path_1447" data-name="Path 1447" d="M528.554,513.092a10.363,10.363,0,0,1-7.02-2.521,9.779,9.779,0,0,1,.072-14,10.046,10.046,0,0,1,6.949-2.7,10.3,10.3,0,0,1,6.768,2.45q2.953,2.448,2.952,7.127a8.99,8.99,0,0,1-2.88,7.092A9.963,9.963,0,0,1,528.554,513.092Zm9.72,20.3v56.81q0,5.9-2.808,8.928a9.3,9.3,0,0,1-7.128,3.023,8.878,8.878,0,0,1-7.021-3.1q-2.7-3.1-2.7-8.855V533.973q0-5.832,2.7-8.784a9.079,9.079,0,0,1,7.021-2.951,9.418,9.418,0,0,1,7.128,2.951Q538.273,528.141,538.274,533.4Z" transform="translate(-340.283 -493.003)" fill="#10285c"/>
        <path id="Path_1448" data-name="Path 1448" d="M578.383,589.72v-85.25q0-5.9,2.628-8.929a8.917,8.917,0,0,1,7.092-3.026,9.3,9.3,0,0,1,7.2,2.989q2.737,2.988,2.736,8.966v85.25q0,5.977-2.771,8.964a9.339,9.339,0,0,1-7.165,2.987,8.876,8.876,0,0,1-7.02-3.1Q578.384,595.48,578.383,589.72Z" transform="translate(-361.822 -492.516)" fill="#10285c"/>
        <path id="Path_1449" data-name="Path 1449" d="M648.084,513.092a10.361,10.361,0,0,1-7.02-2.521,9.778,9.778,0,0,1,.071-14,10.047,10.047,0,0,1,6.949-2.7,10.306,10.306,0,0,1,6.768,2.45q2.951,2.448,2.952,7.127a8.991,8.991,0,0,1-2.88,7.092A9.963,9.963,0,0,1,648.084,513.092Zm9.72,20.3v56.81q0,5.9-2.808,8.928a9.3,9.3,0,0,1-7.129,3.023,8.874,8.874,0,0,1-7.02-3.1q-2.7-3.1-2.7-8.855V533.973q0-5.832,2.7-8.784a9.075,9.075,0,0,1,7.02-2.951A9.419,9.419,0,0,1,655,525.188Q657.8,528.141,657.8,533.4Z" transform="translate(-383.361 -493.003)" fill="#10285c"/>
        <path id="Path_1450" data-name="Path 1450" d="M761.6,592.44a22.8,22.8,0,0,1-15.661,22.717q-7.741,2.986-18.828,2.987a45.905,45.905,0,0,1-18.144-3.24q-7.56-3.24-11.16-8.1a16.318,16.318,0,0,1-3.6-9.757,7.557,7.557,0,0,1,2.3-5.543,7.9,7.9,0,0,1,5.833-2.3,6.8,6.8,0,0,1,4.751,1.512,16.551,16.551,0,0,1,3.169,4.249,21.537,21.537,0,0,0,7.236,7.848q4.211,2.591,11.484,2.592a16.6,16.6,0,0,0,9.685-2.628q3.779-2.627,3.779-6.013,0-5.183-3.923-7.56T725.6,584.664a107.015,107.015,0,0,1-16.525-5.293,27.171,27.171,0,0,1-10.188-7.309,16.738,16.738,0,0,1-3.816-11.159,19.676,19.676,0,0,1,3.528-11.159,24.207,24.207,0,0,1,10.4-8.39,39.865,39.865,0,0,1,16.6-3.131,54.663,54.663,0,0,1,13.716,1.582,34.274,34.274,0,0,1,10.153,4.249,21.019,21.019,0,0,1,6.192,5.9,11.559,11.559,0,0,1,2.124,6.336,7.32,7.32,0,0,1-2.268,5.545A8.98,8.98,0,0,1,749.074,564a7.9,7.9,0,0,1-5.149-1.727,33.954,33.954,0,0,1-4.859-5.185,17.785,17.785,0,0,0-5.256-4.608,16.558,16.558,0,0,0-8.208-1.728,16.078,16.078,0,0,0-8.856,2.269q-3.528,2.269-3.528,5.654a6.118,6.118,0,0,0,2.592,5.075,21.51,21.51,0,0,0,6.984,3.277q4.391,1.3,12.1,3.168a64.693,64.693,0,0,1,14.94,5.327,24.874,24.874,0,0,1,8.785,7.309A16.21,16.21,0,0,1,761.6,592.44Z" transform="translate(-403.565 -508.989)" fill="#10285c"/>
      </g>
    </g>
  </g>
</svg>
